<?xml version="1.0" encoding="UTF-8" standalone="no"?>
<svg width="2565px" height="1341px" viewBox="0 0 2565 1341" version="1.1" xmlns="http://www.w3.org/2000/svg" xmlns:xlink="http://www.w3.org/1999/xlink">
    <!-- Generator: Sketch 41 (35326) - http://www.bohemiancoding.com/sketch -->
    <title>Слой_x0020_1</title>
    <desc>Created with Sketch.</desc>
    <defs></defs>
    <g id="Page-1" stroke="none" stroke-width="1" fill="none" fill-rule="evenodd">
        <g id="Слой_x0020_1" transform="translate(5.000000, 4.000000)">
            <path d="M0,529 L55,529 L55,1 L0,1 L0,529 Z M552,353 C553,252 497,129 344,129 C206,129 133,238 133,334 C133,451 225,539 344,539 C436,539 510,486 543,402 L485,402 C460,456 408,491 344,491 C259,491 197,431 190,353 L552,353 Z M190,305 C203,231 266,177 344,177 C414,177 477,226 493,305 L190,305 Z M760,529 L817,529 L990,139 L931,139 L788,462 L646,139 L587,139 L760,529 Z M1420,353 C1420,252 1365,129 1212,129 C1074,129 1000,238 1000,334 C1000,451 1092,539 1212,539 C1303,539 1377,486 1410,402 L1353,402 C1328,456 1275,491 1212,491 C1126,491 1064,431 1057,353 L1420,353 Z M1057,305 C1071,231 1134,177 1212,177 C1282,177 1345,226 1360,305 L1057,305 Z M1497,529 L1552,529 L1552,1 L1497,1 L1497,529 Z" id="Shape" stroke="#CD101C" stroke-width="10" fill="#CD101C"></path>
            <path d="M0,1322 L61,1322 L61,786 L172,786 C318,786 355,857 355,919 C355,1053 207,1055 172,1055 L123,1055 L332,1322 L409,1322 L235,1102 C345,1095 417,1021 417,925 C417,876 404,732 172,732 L0,732 L0,1322 Z M505,1322 L843,1322 L843,1268 L567,1268 L567,1052 L834,1052 L834,998 L567,998 L567,786 L843,786 L843,732 L505,732 L505,1322 Z M908,1157 C908,1260 992,1332 1099,1332 C1227,1332 1287,1240 1287,1160 C1287,1033 1177,1004 1111,986 C1034,966 989,947 989,883 C989,830 1019,775 1095,775 C1188,775 1208,844 1210,881 L1272,881 C1270,803 1217,722 1103,722 C975,722 928,816 928,882 C928,1017 1063,1023 1143,1052 C1169,1062 1225,1088 1225,1159 C1225,1222 1179,1279 1098,1279 C983,1279 972,1181 970,1157 L908,1157 Z M1367,732 L1367,1091 C1367,1263 1455,1332 1578,1332 C1702,1332 1790,1263 1790,1091 L1790,732 L1728,732 L1728,1091 C1728,1131 1727,1279 1578,1279 C1429,1279 1428,1131 1428,1091 L1428,732 L1367,732 Z M1912,1322 L2229,1322 L2229,1268 L1974,1268 L1974,732 L1912,732 L1912,1322 Z M2352,1322 L2414,1322 L2414,786 L2555,786 L2555,732 L2211,732 L2211,786 L2352,786 L2352,1322 Z" id="Shape" stroke="#CBCBCB" stroke-width="10" fill="#CBCBCB"></path>
            <circle id="Oval" fill="#CBCBCB" cx="1717" cy="73" r="73"></circle>
            <circle id="Oval" fill="#CBCBCB" cx="1977" cy="73" r="73"></circle>
            <circle id="Oval" fill="#828080" cx="1717" cy="270" r="73"></circle>
            <circle id="Oval" fill="#828080" cx="1977" cy="270" r="73"></circle>
            <circle id="Oval" fill="#828080" cx="2227" cy="270" r="73"></circle>
            <circle id="Oval" fill="#CD101C" cx="1717" cy="472" r="73"></circle>
            <circle id="Oval" fill="#CD101C" cx="1977" cy="472" r="73"></circle>
            <circle id="Oval" fill="#CD101C" cx="2227" cy="472" r="73"></circle>
            <circle id="Oval" fill="#CD101C" cx="2480" cy="472" r="73"></circle>
        </g>
    </g>
</svg>