<?xml version="1.0" encoding="UTF-8" standalone="no"?>
<svg
   xmlns:dc="http://purl.org/dc/elements/1.1/"
   xmlns:cc="http://creativecommons.org/ns#"
   xmlns:rdf="http://www.w3.org/1999/02/22-rdf-syntax-ns#"
   xmlns:svg="http://www.w3.org/2000/svg"
   xmlns="http://www.w3.org/2000/svg"
   xmlns:sodipodi="http://sodipodi.sourceforge.net/DTD/sodipodi-0.dtd"
   xmlns:inkscape="http://www.inkscape.org/namespaces/inkscape"
   fill="#000000"
   version="1.1"
   x="0px"
   y="0px"
   viewBox="0 0 96 96"
   style="enable-background:new 0 0 96 96;"
   xml:space="preserve"
   id="svg2"
   inkscape:version="0.91 r13725"
   sodipodi:docname="send.svg"><metadata
     id="metadata20"><rdf:RDF><cc:Work
         rdf:about=""><dc:format>image/svg+xml</dc:format><dc:type
           rdf:resource="http://purl.org/dc/dcmitype/StillImage" /></cc:Work></rdf:RDF></metadata><defs
     id="defs18" /><sodipodi:namedview
     pagecolor="#ffffff"
     bordercolor="#666666"
     borderopacity="1"
     objecttolerance="10"
     gridtolerance="10"
     guidetolerance="10"
     inkscape:pageopacity="0"
     inkscape:pageshadow="2"
     inkscape:window-width="689"
     inkscape:window-height="480"
     id="namedview16"
     showgrid="false"
     inkscape:zoom="2.4583333"
     inkscape:cx="48"
     inkscape:cy="48"
     inkscape:window-x="0"
     inkscape:window-y="0"
     inkscape:window-maximized="0"
     inkscape:current-layer="svg2" /><g
     id="g4"
     style="fill:#009e61;fill-opacity:1"><g
       id="g6"
       style="fill:#009e61;fill-opacity:1"><polygon
         points="46.2,50 58.2,74 82.2,14 22.2,38   "
         id="polygon8"
         style="fill:#009e61;fill-opacity:1" /><path
         d="M31.3,65.5c-0.8-0.8-2-0.8-2.8,0L17.2,76.8c-0.8,0.8-0.8,2,0,2.8c0.4,0.4,0.9,0.6,1.4,0.6s1-0.2,1.4-0.6l11.3-11.3    C32.1,67.5,32.1,66.2,31.3,65.5z"
         id="path10"
         style="fill:#009e61;fill-opacity:1" /><path
         d="M24.3,50.5c-0.8-0.8-2-0.8-2.8,0L10.2,61.8c-0.8,0.8-0.8,2,0,2.8c0.4,0.4,0.9,0.6,1.4,0.6s1-0.2,1.4-0.6l11.3-11.3    C25.1,52.5,25.1,51.2,24.3,50.5z"
         id="path12"
         style="fill:#009e61;fill-opacity:1" /><path
         d="M42.5,71.5L31.2,82.8c-0.8,0.8-0.8,2,0,2.8c0.4,0.4,0.9,0.6,1.4,0.6s1-0.2,1.4-0.6l11.3-11.3c0.8-0.8,0.8-2,0-2.8    C44.5,70.7,43.2,70.7,42.5,71.5z"
         id="path14"
         style="fill:#009e61;fill-opacity:1" /></g></g></svg>