<?xml version="1.0" encoding="UTF-8" standalone="no"?>
<svg width="88px" height="71px" viewBox="0 0 88 71" version="1.1" xmlns="http://www.w3.org/2000/svg" xmlns:xlink="http://www.w3.org/1999/xlink">
    <!-- Generator: Sketch 41 (35326) - http://www.bohemiancoding.com/sketch -->
    <title>Group</title>
    <desc>Created with Sketch.</desc>
    <defs></defs>
    <g id="Page-1" stroke="none" stroke-width="1" fill="none" fill-rule="evenodd">
        <g id="Group">
            <path d="M32,0.36218 C28.710587,0.36218 26,3.07276 26,6.36218 L26,10.36218 L6,10.36218 C2.7105855,10.36218 0,13.07277 0,16.36218 L0,52.36218 C0,55.65158 2.7105855,58.36218 6,58.36218 L12,58.36218 L12,68.36218 C12.0059765,69.1140521 12.4331041,69.7990566 13.1056202,70.1353146 C13.7781362,70.4715727 14.5824165,70.4022721 15.1875,69.95593 L30.65625,58.36218 L56,58.36218 C59.289414,58.36218 62,55.65158 62,52.36218 L62,51.86218 L72.8125,59.95593 C73.4175835,60.4022721 74.2218638,60.4715727 74.8943798,60.1353146 C75.5668959,59.7990566 75.9940235,59.1140521 76,58.36218 L76,48.36218 L82,48.36218 C85.289413,48.36218 88,45.65158 88,42.36218 L88,6.36218 C88,3.07276 85.289413,0.36218 82,0.36218 L32,0.36218 Z M32,4.36218 L82,4.36218 C83.142381,4.36218 84,5.2198 84,6.36218 L84,42.36218 C84,43.50458 83.142381,44.36218 82,44.36218 L74,44.36218 C72.8954762,44.3622904 72.0001104,45.2576562 72,46.36218 L72,54.36218 L62,46.86218 L62,16.36218 C62,13.07277 59.289414,10.36218 56,10.36218 L30,10.36218 L30,6.36218 C30,5.2198 30.857619,4.36218 32,4.36218 Z M6,14.36218 L56,14.36218 C57.14238,14.36218 58,15.2198 58,16.36218 L58,52.36218 C58,53.50458 57.14238,54.36218 56,54.36218 L30,54.36218 C29.5708329,54.3666863 29.1544965,54.5091172 28.8125,54.76843 L16,64.36218 L16,56.36218 C15.9998896,55.2576562 15.1045238,54.3622904 14,54.36218 L6,54.36218 C4.85762,54.36218 4,53.50458 4,52.36218 L4,16.36218 C4,15.2198 4.85762,14.36218 6,14.36218 Z" id="Shape" fill="#CAC4C4"></path>
            <circle id="Oval" fill="#CD0E1E" cx="45" cy="34" r="6"></circle>
            <circle id="Oval" fill="#FFFFFF" cx="45" cy="34" r="2"></circle>
            <circle id="Oval" fill="#82807F" cx="31" cy="34" r="6"></circle>
            <circle id="Oval" fill="#FFFFFF" cx="31" cy="34" r="2"></circle>
            <circle id="Oval" fill="#CAC4C4" cx="17" cy="34" r="6"></circle>
            <circle id="Oval" fill="#FFFFFF" cx="17" cy="34" r="2"></circle>
        </g>
    </g>
</svg>